<?xml version="1.0" encoding="utf-8"?>
<!-- Generator: Adobe Illustrator 22.0.1, SVG Export Plug-In . SVG Version: 6.00 Build 0)  -->
<svg version="1.1" id="Layer_1" xmlns="http://www.w3.org/2000/svg" xmlns:xlink="http://www.w3.org/1999/xlink" x="0px" y="0px"
	 viewBox="0 0 425.2 425.2" style="enable-background:new 0 0 425.2 425.2;" xml:space="preserve">
<g>
	<path class="st0" d="M370.8,190.2c0,35.2,0,70.4,0,105.6c0,0.7,0,1.4,0,2.1c0.2,2.7-1.1,4.7-3.3,6.2c-1.3,0.9-2.6,1.8-3.9,2.7
		c-7.2,4.8-14.4,9.5-21.6,14.3c-11.1,7.3-22.2,14.7-33.3,22c-11.4,7.5-22.8,15.1-34.2,22.6c-5.7,3.8-11.4,7.6-17.2,11.4
		c-11.1,7.3-22.2,14.7-33.3,22c-2.3,1.6-4.7,3.1-7,4.6c-1.4,0.9-2.8,1.6-4.6,1.5c-1.1,0-2.1-0.2-3-0.8c-1.5-0.9-3.1-1.9-4.6-2.9
		c-6.4-4.2-12.8-8.5-19.2-12.7c-5.4-3.6-10.9-7.2-16.3-10.8c-11.3-7.5-22.7-15-34-22.5c-5.7-3.8-11.4-7.6-17.2-11.3
		c-11.1-7.4-22.3-14.8-33.4-22.1c-8.8-5.8-17.5-11.5-26.3-17.3c-0.7-0.5-1.4-1.1-2-1.6c-1.4-1.3-1.9-2.9-2-4.7c0-0.5,0-1.1,0-1.6
		c0-71.1,0-142.2,0-213.4c0-0.5,0-1.1,0-1.6c0.1-4.1,3.6-6.8,6.7-6.7c0.7,0,1.4,0,2.1,0c25.2,0,50.3,0,75.5,0c0.5,0,1.1,0,1.6,0
		c0.7,0,1.2-0.2,1.8-0.6c5.9-4.8,11.9-9.5,17.8-14.3c5.8-4.6,11.6-9.3,17.4-13.9c5.3-4.2,10.5-8.4,15.8-12.6
		c4.9-4,9.9-7.9,14.8-11.8c1.2-1,2.6-1.6,4.1-1.7c1.9-0.1,3.5,0.5,4.9,1.6c2.8,2.2,5.5,4.4,8.2,6.6c5.8,4.6,11.5,9.2,17.3,13.8
		c6.2,5,12.4,10,18.6,15c5.3,4.2,10.5,8.4,15.8,12.6c2,1.6,4,3.2,6,4.9c0.5,0.4,1.1,0.7,1.8,0.7c0.5,0,1.1,0,1.6,0
		c25.3,0,50.6,0,75.9,0c0.6,0,1.3,0,1.9,0c3.6,0,6.7,3.3,6.6,6.7c0,0.8,0,1.5,0,2.3C370.8,119.4,370.8,154.8,370.8,190.2z
		 M68.2,294.5c1.5,1,3,2,4.5,2.9c11.2,7.4,22.5,14.9,33.7,22.3c11,7.3,22.1,14.6,33.2,21.9c5.7,3.8,11.3,7.5,17,11.3
		c11.3,7.5,22.7,15,34,22.5c6.9,4.6,13.8,9.1,20.7,13.7c0.4,0.3,0.9,0.5,1.4,0.8c48.1-31.8,96.1-63.6,144.3-95.4c0-0.8,0-1.5,0-2.3
		c0-67,0-133.9,0-200.9c0-0.5,0-0.9,0-1.4c0-0.3-0.1-0.7-0.2-1.1c-0.7,0-1.4,0-2,0c-8.3,0-16.7,0-25,0c-16,0-31.9,0-47.9,0
		c-1.6,0-3-0.4-4.3-1.2c-0.6-0.4-1.1-0.8-1.7-1.3c-3-2.4-5.9-4.8-8.9-7.2c-8.9-7.1-17.9-14.2-26.8-21.4
		c-8.9-7.1-17.7-14.2-26.6-21.3c-0.3-0.2-0.7-0.4-1-0.6c-0.3,0.2-0.6,0.3-0.8,0.5c-3.8,3-7.5,6-11.3,9c-7.6,6.1-15.2,12.2-22.8,18.2
		c-5.3,4.2-10.6,8.5-15.9,12.7c-4.3,3.4-8.6,6.9-12.9,10.3c-1.8,1.5-3.8,2.1-6.2,2.1c-23.9,0-47.8,0-71.7,0c-0.6,0-1.2,0-1.8,0
		c-0.3,0-0.7,0.1-1,0.1c-0.1,0.3-0.1,0.4-0.1,0.6C68.2,157.9,68.2,226.1,68.2,294.5z"/>
	<path class="st0" d="M88.8,198c0-26.6,0-53.2,0-79.8c0-0.7,0-1.4,0-2.1c-0.1-2.9,2.4-6.5,6.6-6.7c0.5,0,1.1,0,1.6,0
		c15.5,0,31,0,46.5,0c6.8,0,12.7-2.2,18-6.5c5.7-4.6,11.4-9.1,17.1-13.7c5.3-4.2,10.6-8.5,15.9-12.7c4.5-3.6,9-7.2,13.6-10.8
		c1.4-1.1,2.9-1.7,4.7-1.7c1.6,0,3,0.7,4.2,1.6c2.3,1.7,4.5,3.6,6.7,5.3c4.4,3.5,8.8,7,13.2,10.5c4.4,3.6,8.8,7.1,13.3,10.7
		c4.9,3.9,9.8,7.8,14.7,11.7c3.9,3,8.3,4.8,13.2,5.3c1.3,0.1,2.7,0.2,4,0.2c15.6,0,31.2,0,46.8,0c0.7,0,1.4,0,2.1,0.2
		c3.4,0.9,5.4,3.5,5.4,7.1c0,9.7,0,19.5,0,29.2c0,44.3,0,88.6,0,132.9c0,0.8,0,1.6-0.2,2.4c-0.4,2.1-1.7,3.5-3.5,4.7
		c-4,2.6-8,5.3-12,7.9c-8.7,5.7-17.3,11.5-25.9,17.2c-7.9,5.2-15.8,10.4-23.6,15.6c-9.2,6.1-18.5,12.2-27.7,18.3
		c-5.7,3.8-11.3,7.5-17,11.3c-3.1,2.1-6.3,4.1-9.4,6.2c-3,2-5.9,2-8.8,0.1c-5.3-3.5-10.7-7-16-10.6c-7-4.7-14.1-9.3-21.1-14
		c-13-8.6-25.9-17.1-38.9-25.7c-5.7-3.8-11.4-7.6-17.2-11.4c-5.6-3.7-11.1-7.4-16.7-11.1c-2-1.3-3.9-2.6-5.9-3.9
		c-2.4-1.5-3.7-3.6-3.7-6.5c0-16.3,0-32.6,0-48.9C88.8,219.7,88.8,208.8,88.8,198z M322.6,276.1c0-50.9,0-101.5,0-152.2
		c0-0.2-0.1-0.3-0.2-0.5c-0.7-0.2-1.4-0.1-2.1-0.1c-13,0-25.9,0-38.9,0c-3.4,0-6.7-0.3-9.9-1.2c-5.5-1.4-10.6-3.7-15.1-7.3
		c-7-5.5-13.9-11.1-20.9-16.7c-7.3-5.9-14.6-11.7-22-17.6c-0.3-0.2-0.7-0.4-1-0.6c-0.4,0.3-0.8,0.5-1.1,0.7
		c-6,4.8-12.1,9.7-18.1,14.5c-7.7,6.1-15.4,12.3-23.1,18.4c-4.5,3.6-9.5,6.4-15.1,8c-3.5,1-7,1.6-10.6,1.5c-6.3,0-12.6,0-18.8,0
		c-7,0-14.1,0-21.1,0c-0.6,0-1.3-0.2-2,0.3c0,0.6,0,1.3,0,2c0,49.5,0,98.9,0,148.4c0,0.4,0,0.7,0,1.1c0,0.4,0.1,0.8,0.1,1.2
		c36.7,24.2,73.3,48.5,109.9,72.7C249.3,324.6,285.9,300.3,322.6,276.1z"/>
	<path class="st0" d="M157.6,171.4c2.3,9.2,4.6,18.2,6.8,27.3c0.3,0.1,0.6,0.2,0.8,0.2c4.1,0,8.2,0,12.3,0c0.1,0,0.2,0,0.4-0.1
		c0.6-0.7,0.7-1.6,1-2.5c2.4-7,4.7-14.1,7.1-21.2c1.8-5.4,3.6-10.8,5.4-16.2c0.1-0.4,0.3-0.8,0.4-1.1c0.1-0.1,0.1-0.1,0.2-0.1
		c0.1,0,0.1-0.1,0.2-0.1c0.2,0,0.5,0,0.7,0c13.2,0,26.4,0,39.6,0c0.2,0,0.3,0.1,0.6,0.1c1.3,3.3,2.3,6.8,3.5,10.2
		c1.2,3.4,2.3,6.9,3.4,10.3c1.1,3.4,2.3,6.8,3.4,10.2c1.2,3.4,2.3,6.9,3.4,10.2c1.6,0.2,12.1,0.2,13.8,0c2.3-9,4.5-18.1,6.8-27.1
		c0.3-0.1,0.5-0.2,0.8-0.2c6.5,0,12.9,0,19.4,0c0.2,0,0.3,0.1,0.6,0.2c-0.1,0.9-0.2,1.8-0.3,2.8c-0.3,2.4-0.7,4.9-1,7.3
		c-0.5,3.4-1,6.8-1.5,10.2c-0.6,4.2-1.2,8.3-1.8,12.5c-0.5,3.5-1,7.1-1.5,10.6c-0.4,2.9-0.8,5.8-1.3,8.7c-0.4,3-0.8,5.9-1.3,8.9
		c-0.4,2.8-0.8,5.7-1.2,8.5c-0.4,3-0.9,5.9-1.3,8.9c-0.4,2.8-0.8,5.6-1.2,8.3c-0.4,2.8-0.8,5.6-1.2,8.3c0,0.3-0.2,0.5-0.3,0.9
		c-0.4,0.1-0.8,0.1-1.2,0.1c-0.5,0-0.9,0-1.4,0c-39.5,0-79,0-118.5,0c-0.8,0-1.6,0-2.4,0c-0.7-0.9-0.6-1.9-0.7-2.8
		c-0.6-3.5-1-7-1.5-10.4c-0.6-4.2-1.3-8.4-1.9-12.7c-0.3-2.1-0.6-4.2-0.9-6.3c-0.5-3.5-1-7.1-1.5-10.6c-0.6-4.1-1.2-8.1-1.7-12.2
		c-0.4-3.1-0.9-6.2-1.4-9.4c-0.5-3.5-1-7-1.5-10.4c-0.4-2.9-0.9-5.8-1.3-8.7c-0.4-2.8-0.8-5.6-1.2-8.3c-0.2-1.1-0.3-2.2-0.5-3.3
		c0-0.3,0-0.7,0-1.1c0.2-0.1,0.5-0.1,0.7-0.1C144.3,171.4,150.9,171.4,157.6,171.4z"/>
</g>
</svg>
