<?xml version="1.0" encoding="utf-8"?>
<!-- Generator: Adobe Illustrator 22.0.1, SVG Export Plug-In . SVG Version: 6.00 Build 0)  -->
<svg version="1.1" id="Layer_1" xmlns="http://www.w3.org/2000/svg" xmlns:xlink="http://www.w3.org/1999/xlink" x="0px" y="0px"
	 viewBox="0 0 1600 1600" style="enable-background:new 0 0 1600 1600;" xml:space="preserve">
<g>
	<path class="st0" d="M1471.4,464.9c-69.6-143.8-211.2-285.6-358.2-346.5c-233.4-116.9-556.7-78-759.7,78
		C100.7,388.3-4.8,693.8,76.1,1001.9c55.5,238.2,284,463.2,520,522.6c299,75.9,607.5-16.7,800.2-265.7
		C1568.8,1048.1,1597.9,706.3,1471.4,464.9z M1341.4,1244.5c-174.2,200.4-413.7,290.2-678.9,242.5c-157.7-39.8-315.5-109.7-416-257
		C81.9,1034.3,52.2,703.9,174.4,479.3C307.5,225.2,570.7,80.8,853.2,98.1c171.9,17.3,322.1,86.6,450.6,207.9
		c55.2,63.2,100.8,130.5,135.8,202.1C1550,737.4,1508.4,1054.5,1341.4,1244.5z"/>
	<path class="st0" d="M1312.5,355.1h-17.3c-8.4-4.3-22.8-5.8-23.1-17.3c2.9-4.9,8.1-4.9,11.6-8.7c-12.7-8.1-5.5-24-11.6-34.6
		c-21.1-6.3-3.8,18.5-17.3,23.1c-21.9-2.9-38.4,7.2-54.9-8.7l5.8-5.8c-2-2.3-8.1-7.2-14.5-5.8c-3.5,26.6-29.2,9.5-49.1,14.4
		c-17.6-4-6.1-16.7-8.7-28.9c-5.5,0.9-9.8-1.4-14.4-2.9c-2,35.8-41,18.5-63.6,23.1c-23.1-10.7-72.8,12.7-69.3-31.8
		c-16.2-3.7-26.9,5.2-37.6,14.4c-46.2-26.9-56.3,50-95.3,23.1c-2.6-17,3.2-30.6,11.5-43.3c22.2-23.7-3.8-49.1-8.7-72.2
		c-21.7-50.5-86.1-69.3-132.9-43.3c-51.4,25.1-56.6,83.2-52,132.8c-2.9,5.2-9.5,2-14.4,2.9c-41.3,29.7-68.5,75.7-98.2,115.5
		c-3.5,100.8-24,194-49.1,285.9c4.3,3.5,11,0.9,14.4,5.8c-24,28,8.1,54,5.8,83.7c-32.4,97.3-64.4,194.6-83.8,297.4
		c-10.4,24.5-36.7,23.1-54.9,34.6c-25.1,38.4-65.3,70.7-75.1,115.5c16.5,32.6,11,82,49.1,98.2c19.6,36.7,54,3.8,80.9,5.8
		c15.3-26-3.8-52-5.8-78c26.6-11,61.5-1.7,89.6-8.7c21.1-46.2,38.1-94.1,63.5-138.6c17.3-73.9,43.3-144.1,78-210.8
		c6.9-5.2-2.3-16.7,8.7-20.2c47.4,11.8,70.5,64.1,101.1,98.2c12.7,35.8,56.3,59.2,75.1,92.4c18.2,68.4,32.4,138.6,54.9,205
		c4.6,36.1-12.7,70.7,20.2,95.3c40.7,26.6,85.2,70.2,138.7,40.4v-37.5c-15.3-45.6-61.2-78.5-54.9-132.8
		c10.7-73.6-30.9-125.6-20.2-199.2c-28-28-37.6-63.5-63.5-92.4c-8.4-20.5-35.2-33.5-34.7-57.7c5.8-4.9,10.4-12.7,17.3-14.4
		c-0.3-33.8-30.3-57.4-49.1-80.8c-17-27.1-46.5-49.4-60.7-78l-23.1,5.8c-2-18.2-8.1-34.6-5.8-54.9c1.7-12.7,15.3-21.1,28.9-17.3
		c6.9-26.3,3.8-56.6,8.7-83.7c7.2-14.1,22.8-8.7,34.7-11.5c23.1,9.2,43.9-3.7,63.5-11.6l2.9,2.9c7.2,3.2,9.5-5.8,14.4-8.7
		c39.9,12.7,50-39.9,78-54.9l54.9,11.6c8.7-0.3,13.9-4.6,11.5-14.4c5.2-15.3-11-31.2,2.9-40.4c18.8,45,30.6,92.7,60.7,132.8
		c9-1.7,16.7-6.6,23.1-14.4c-24-40.7-48.2-84.9-46.2-132.8c11,1.7,17.9,12.7,28.9,14.4c5.5-6.6,11.3-21.1,23.1-17.3
		c16.7-74.5,100.2-36.7,150.2-54.9C1314,359.2,1311.7,357.7,1312.5,355.1z M861.9,424.4c-11-1.7-23.7-5.2-28.9-14.4l46.2-37.5
		c24.8-2.3,46.2,3.8,69.3,5.8C932.4,411.7,879.2,381.4,861.9,424.4z"/>
</g>
</svg>
