<?xml version="1.0" encoding="UTF-8"?><svg xmlns="http://www.w3.org/2000/svg" viewBox="0 0 32 32"><path style="line-height:normal;text-indent:0;text-align:start;text-decoration-line:none;text-decoration-style:solid;text-decoration-color:#000;text-transform:none;block-progression:tb;isolation:auto;mix-blend-mode:normal" d="M6.21 4L9 8.531v14.92L6.027 28h17.426l4.565-6H16V4H6.21zm3.58 2H14v18h9.982l-1.52 2H9.726L11 24.049V7.967l-.148-.24L9.789 6zm8.21.191v2.041c4.002.913 7 4.493 7 8.768a8.932 8.932 0 0 1-.518 3h2.098c.271-.954.42-1.96.42-3 0-5.382-3.888-9.865-9-10.809zM7 10.695a10.954 10.954 0 0 0-1.877 7.955A10.96 10.96 0 0 0 7 23.305v-12.61z" font-weight="400" font-family="sans-serif" white-space="normal" overflow="visible"/><metadata><rdf:RDF xmlns:rdf="http://www.w3.org/1999/02/22-rdf-syntax-ns#" xmlns:rdfs="http://www.w3.org/2000/01/rdf-schema#" xmlns:dc="http://purl.org/dc/elements/1.1/"><rdf:Description about="https://iconscout.com/legal#licenses" dc:title="league,of,legends" dc:description="league,of,legends" dc:publisher="Iconscout" dc:date="2017-12-30" dc:format="image/svg+xml" dc:language="en"><dc:creator><rdf:Bag><rdf:li>Icons8</rdf:li></rdf:Bag></dc:creator></rdf:Description></rdf:RDF></metadata></svg>