<?xml version="1.0" encoding="utf-8"?>
<!-- Generator: Adobe Illustrator 22.0.1, SVG Export Plug-In . SVG Version: 6.00 Build 0)  -->
<svg version="1.1"
	 id="svg2" inkscape:export-filename="D:\Dropbox\Hearthstone Deck Tracker icon\hearthtrack_v2_16.png" inkscape:export-xdpi="5.6300001" inkscape:export-ydpi="5.6300001" inkscape:version="0.91 r13725" sodipodi:docname="hearthtrack_v2.svg" xmlns:cc="http://creativecommons.org/ns#" xmlns:dc="http://purl.org/dc/elements/1.1/" xmlns:inkscape="http://www.inkscape.org/namespaces/inkscape" xmlns:rdf="http://www.w3.org/1999/02/22-rdf-syntax-ns#" xmlns:sodipodi="http://sodipodi.sourceforge.net/DTD/sodipodi-0.dtd" xmlns:svg="http://www.w3.org/2000/svg"
	 xmlns="http://www.w3.org/2000/svg" xmlns:xlink="http://www.w3.org/1999/xlink" x="0px" y="0px" viewBox="0 0 256 256"
	 style="enable-background:new 0 0 256 256;" xml:space="preserve">
<style type="text/css">
	.st0{fill:#FFFFFF;stroke:#FFFFFF;stroke-width:2.5205;}
	.st1{fill:#FFFFFF;}
	.st2{fill:none;stroke:#FFFFFF;stroke-width:35.2344;}
</style>
<sodipodi:namedview  bordercolor="#666666" borderopacity="1.0" id="base" inkscape:current-layer="layer1" inkscape:cx="4.1192418" inkscape:cy="126.45783" inkscape:document-units="px" inkscape:pageopacity="0" inkscape:pageshadow="2" inkscape:window-height="1017" inkscape:window-maximized="1" inkscape:window-width="1920" inkscape:window-x="1272" inkscape:window-y="-8" inkscape:zoom="1.7940104" pagecolor="#373737" showgrid="false">
	
		<inkscape:grid  dotted="true" empcolor="#ffffff" empopacity="1" empspacing="4" enabled="true" id="grid3000" snapvisiblegridlinesonly="true" type="xygrid" visible="true">
		</inkscape:grid>
</sodipodi:namedview>
<g id="layer1" transform="translate(0,-796.36218)" inkscape:groupmode="layer" inkscape:label="Book">
	
		<g id="g4154" transform="matrix(1.9995655,0,0,1.9995655,-111.6595,-923.70458)" inkscape:export-xdpi="90" inkscape:export-ydpi="90">
		<path class="st0" d="M155.2,911.3l-23.9-22.1l-12-21.6l-14.6,24.6l-19.3,20l-22.2,12.5l23.9,14.5l22,21.3l11.2,20.2l12.3-21.3
			l23.5-22.4l20.2-14.6L155.2,911.3z M120.1,957.4c-17.7,0-32.1-14.4-32.1-32.1c0-17.7,14.4-32.1,32.1-32.1s32.1,14.4,32.1,32.1
			S137.9,957.4,120.1,957.4z"/>
		<path id="path3803" inkscape:connector-curvature="0" sodipodi:nodetypes="sssscssssscsss" class="st1" d="M121.6,905.7
			c-8.9,0-17.6,6.1-17.2,14.3c0.3,6.6,6.4,10.7,11.4,10.7c6.8,0,8.5-3.9,8.5-5.4c0-3.8-2.6-7.1-5.6-6.5c1.8,4.7-0.7,6.6-2.4,6.5
			c-4.6-0.3-5.4-3.6-5.2-5.6c0.5-5.2,5-7.5,9.4-7.5c6,0,10.8,5,10.8,13.6c0,8.2-9.8,13.4-15.6,13.3c-2.3,0-5.1-0.2-8.4-1.3
			c1.7,4.2,7.8,5.1,12.5,5c11.4-0.2,18.8-9.6,18.9-20C138.9,913.1,127.8,905.7,121.6,905.7L121.6,905.7z"/>
		<circle id="path3801_1_" class="st2" cx="120.1" cy="925.3" r="32.1"/>
	</g>
</g>
</svg>
